PathFileType	4	(X/Y/Z)	C:\Users\Basilio\Documents\Thesis Gigler\squatting_fais\c3dfiles\076\SJ_pre1\markers_experimental.trc
DataRate	CameraRate	NumFrames	NumMarkers	Units	OrigDataRate	OrigDataStartFrame	OrigNumFrames
200.000000	200.000000	4	61	mm	200.000000	613	1226
Frame#	Time	FHD			LBHD			RBHD			C7			T10			CLAV			LSHO			LUUPA			LMUPA			LDUPA			LLEP			LMEP			LRAD			LUL			LRFIN			RSHO			RUPA1			RMUPA			RDUPA			RLEP			RMEP			RRAD			RUL			RUFIN			LASI			RASI			USACR			LSACR			RSACR			LTHI1			LTHI2			LTHI3			LTHI4			LLFC			LMFC			LTIB1			LTIB2			LTIB3			LTIB4			LLMAL			LMMAL			LHEE			LMT1			LMT2			LMT5			RTHI			RTHI2			RTHI3			RTHI4			RLFC			RMFC			RTIB1			RTIB2			RTIB3			RTIB4			RLMAL			RMMAL			RHEE			RMT1			RMT2			RMT5			
		X1	Y1	Z1	X2	Y2	Z2	X3	Y3	Z3	X4	Y4	Z4	X5	Y5	Z5	X6	Y6	Z6	X7	Y7	Z7	X8	Y8	Z8	X9	Y9	Z9	X10	Y10	Z10	X11	Y11	Z11	X12	Y12	Z12	X13	Y13	Z13	X14	Y14	Z14	X15	Y15	Z15	X16	Y16	Z16	X17	Y17	Z17	X18	Y18	Z18	X19	Y19	Z19	X20	Y20	Z20	X21	Y21	Z21	X22	Y22	Z22	X23	Y23	Z23	X24	Y24	Z24	X25	Y25	Z25	X26	Y26	Z26	X27	Y27	Z27	X28	Y28	Z28	X29	Y29	Z29	X30	Y30	Z30	X31	Y31	Z31	X32	Y32	Z32	X33	Y33	Z33	X34	Y34	Z34	X35	Y35	Z35	X36	Y36	Z36	X37	Y37	Z37	X38	Y38	Z38	X39	Y39	Z39	X40	Y40	Z40	X41	Y41	Z41	X42	Y42	Z42	X43	Y43	Z43	X44	Y44	Z44	X45	Y45	Z45	X46	Y46	Z46	X47	Y47	Z47	X48	Y48	Z48	X49	Y49	Z49	X50	Y50	Z50	X51	Y51	Z51	X52	Y52	Z52	X53	Y53	Z53	X54	Y54	Z54	X55	Y55	Z55	X56	Y56	Z56	X57	Y57	Z57	X58	Y58	Z58	X59	Y59	Z59	X60	Y60	Z60	X61	Y61	Z61	

614	3.065	93.37155151367189	1002.921875	-883.7335205078127	-61.04885864257814	981.183288574219	-981.5675048828127	-47.84863281250001	980.9859619140627	-831.3894042968752	-129.7439727783203	941.941589355469	-908.0200195312502	-414.0237426757814	813.8479003906252	-921.8791503906252	-97.38720703125003	787.4415283203127	-905.9959716796877	-93.1820755004883	845.5659179687502	-1073.17236328125	-209.3312072753907	776.9887695312502	-1219.149169921875	-244.6158599853516	746.9627075195314	-1207.668334960938	-256.6083679199219	760.0495605468751	-1265.993774414063	-305.2046508789063	750.6920166015626	-1299.174438476563	-351.2254333496094	824.3878173828127	-1280.563354492188	-485.7672119140626	712.1622924804689	-1135.2490234375	nan	nan	nan	-477.391815185547	651.1376342773439	-1159.158203125	-119.9540405273438	842.0045166015627	-745.3833618164064	-247.7369232177735	807.1193847656252	-601.3549194335939	-270.3479919433594	762.0762329101564	-604.3004760742189	-301.8969116210938	787.6307373046877	-559.3379516601564	-363.8826293945313	752.4308471679689	-538.7252807617189	-411.4646606445314	817.8109130859377	-578.2775268554689	-501.3583374023439	691.2887573242189	-730.5939941406251	-454.6753845214845	672.1565551757814	-753.2335815429689	-491.7015686035157	630.6019897460939	-701.1199951171876	-445.3176879882814	682.3705444335939	-1087.2509765625	nan	nan	nan	-519.8681640625001	748.8840942382814	-923.694030761719	-548.4963989257814	736.3861694335939	-952.945983886719	-549.1804809570314	730.7222900390626	-896.342468261719	-479.3446350097657	584.3078613281251	-1138.92919921875	-398.037322998047	566.6181030273439	-1139.724609375	-371.5593261718751	595.2435302734376	-1109.44677734375	-372.3240661621094	512.1007690429689	-1151.252807617188	-247.8706359863282	414.3665161132814	-1145.898193359375	-233.6032409667969	411.9611206054689	-1037.871826171875	-248.8143768310547	280.0787353515626	-1066.01904296875	-286.8005371093751	230.8718414306641	-1129.323486328125	-262.8255615234376	227.307846069336	-1089.878784179688	-314.3256530761719	171.4550476074219	-1055.482421875	-407.9907226562501	76.70482635498048	-1112.68115234375	-388.1908569335939	89.39717102050783	-1027.013671875	-471.7292785644532	43.20005798339844	-1068.7529296875	-261.9062194824219	54.49966430664064	-1043.3388671875	-255.2678985595704	54.73891067504884	-1082.2978515625	-271.2950439453126	42.9322738647461	-1133.625244140625	-420.2916564941407	516.6578369140626	-702.9171142578126	-352.2296142578126	521.7126464843751	-690.7789916992189	-334.0186767578126	548.1075439453126	-705.7607421875001	-302.7129211425782	452.5327148437501	-686.7362670898439	-257.0850219726563	420.8511047363282	-683.7255859375001	-230.0975189208985	417.9726562500001	-786.7971191406252	-231.961898803711	287.6381530761719	-704.5010986328126	-329.7955017089844	239.9745483398438	-683.0026245117189	-288.7156677246094	222.0954132080079	-699.5709228515626	-295.7279357910157	179.0790405273438	-737.9008178710939	-406.3758544921876	77.26368713378908	-712.7042236328126	-383.5407409667969	89.27035522460939	-795.8643798828127	-466.681854248047	50.3601417541504	-761.4547119140626	-258.4458007812501	52.57483673095705	-773.4948730468752	-256.5312805175782	56.39879989624025	-727.9605102539064	-284.1075744628907	35.23678970336915	-675.3004150390626	
615	3.07	94.68020629882814	999.697448730469	-883.7563476562502	-58.5031204223633	979.4981689453127	-981.4263916015627	-46.59284591674805	977.8631591796877	-831.1596679687502	-128.4576873779297	939.0984497070315	-907.7625732421877	-413.2105712890626	812.544372558594	-921.7490844726565	-96.85111236572268	784.5848388671877	-906.1033325195315	-92.24278259277345	842.6138305664065	-1073.287231445313	-209.4785614013672	774.9734497070315	-1219.67578125	-244.4471282958985	744.9507446289064	-1207.659057617188	-256.8899230957032	758.3991088867189	-1265.981689453125	-305.1578674316407	749.2527465820314	-1299.190673828125	-350.6066894531251	823.3711547851565	-1280.515747070313	-486.0840759277345	711.9337768554689	-1134.954223632813	nan	nan	nan	-477.8076782226564	650.8413696289064	-1158.979370117188	-118.9156265258789	838.6716918945315	-745.3660278320314	-246.8411407470704	804.6165771484377	-601.1621704101564	-269.7367553710938	759.7077636718751	-604.1758422851564	-301.0974426269532	785.5786743164065	-559.1959228515626	-363.3281250000001	750.8052978515626	-538.4652709960939	-410.4996643066407	816.4272460937502	-577.8568725585939	-501.3957824707032	690.8748168945314	-730.4898071289064	-454.4294433593751	671.4703369140626	-752.9746704101564	-491.9252014160157	629.9889526367189	-701.2695312500001	-445.7166442871095	680.2513427734376	-1086.672241210938	nan	nan	nan	-519.5099487304689	748.0328369140626	-923.5415649414065	-548.2662353515626	735.8692626953126	-952.856384277344	-548.8942260742189	729.9907226562501	-896.1881103515627	-480.9934692382814	584.6103515625001	-1139.52294921875	-398.6794738769532	566.5814819335939	-1140.02294921875	-372.0910644531251	595.1708374023439	-1109.711791992188	-372.0524597167969	511.8479919433595	-1151.324096679688	-248.4620208740235	414.4357299804689	-1146.755859375	-233.806869506836	412.0084838867189	-1038.743286132813	-248.9588470458985	280.2020568847657	-1066.658935546875	-287.3227844238282	230.9134063720704	-1130.081787109375	-262.9868164062501	227.3956298828126	-1090.443603515625	-314.4706115722657	171.3933715820313	-1055.808837890625	-408.0346679687501	76.64332580566408	-1112.733032226563	-388.2280273437501	89.41963195800783	-1027.1083984375	-471.6752929687501	43.14989089965821	-1068.695556640625	-261.9216308593751	54.56578826904298	-1043.435546875	-255.2712860107422	54.72720336914064	-1082.390502929688	-271.2060546875001	42.9028663635254	-1133.676391601563	-420.7872619628907	516.5014648437501	-702.5792236328126	-352.8040771484376	521.6557006835939	-690.3781738281251	-334.5331115722657	548.1789550781251	-705.2496337890626	-303.2114257812501	452.4478759765626	-686.1385498046876	-257.4889526367188	420.8772888183595	-683.2364501953126	-230.4120330810547	418.0426635742189	-785.9385986328127	-232.1830291748047	287.7257080078126	-703.9224243164064	-330.0375061035157	239.8881530761719	-682.7269897460939	-288.9389953613282	222.0525360107422	-699.1241455078126	-295.8185424804688	179.1043090820313	-737.5409545898439	-406.4400329589845	77.23137664794923	-712.6361083984376	-383.3950500488282	89.2550735473633	-795.7344970703127	-466.6863708496095	50.36033248901369	-761.4809570312501	-258.4197387695313	52.64365386962892	-773.4180297851565	-256.4027709960938	56.35366821289064	-727.8527221679689	-284.0764465332032	35.33805847167969	-675.2199096679689	
616	3.075	95.95195770263673	996.5043945312502	-883.5883789062502	-59.66744232177736	974.200866699219	-978.8997802734377	-45.2484245300293	974.760925292969	-830.9737548828127	-127.0577011108399	936.6544189453127	-907.5214843750002	-412.4888305664064	811.3543090820315	-921.596862792969	-96.22697448730472	781.5879516601565	-905.9389648437502	-91.46310424804689	839.642761230469	-1073.23779296875	-208.6496887207032	773.052917480469	-1219.33740234375	-244.707260131836	742.3931274414064	-1207.690063476563	-257.0707397460938	756.6163940429689	-1265.866333007813	-305.1379089355469	748.0673828125001	-1299.2041015625	-350.1577453613282	822.3157958984377	-1280.291748046875	-485.3964233398439	711.6954345703126	-1134.74169921875	nan	nan	nan	-478.3030090332032	650.1992797851564	-1159.48193359375	-117.9881057739258	835.2339477539065	-745.3557739257814	-245.8985443115235	801.9301757812502	-600.9249877929689	-269.1472473144532	757.3342895507814	-603.9622802734376	-300.2526855468751	783.282653808594	-558.9263305664064	-362.7588500976563	748.9777221679689	-538.2354125976564	-409.5860595703126	815.0983886718752	-577.5092163085939	-501.3069763183595	690.4516601562501	-730.3968505859376	-454.2824707031251	670.8411865234376	-752.8861694335939	-491.9404907226564	629.4224853515626	-701.2775268554689	-440.5823974609376	679.7035522460939	-1083.64892578125	nan	nan	nan	-519.5059204101564	747.4963989257814	-923.2379150390627	-546.7996826171876	735.1839599609376	-953.2280273437502	-548.7669067382814	729.1929931640626	-896.1069335937502	-480.5013427734376	584.2416381835939	-1139.346069335938	-399.2805175781251	566.5812988281251	-1140.267822265625	-372.6072692871094	594.9403076171876	-1109.808349609375	-372.8995666503907	511.9328918457032	-1151.76025390625	-248.9762268066407	414.5013427734376	-1147.68212890625	-233.9917297363282	412.0912475585939	-1039.599243164063	-249.5820922851563	279.7155761718751	-1067.55029296875	-287.3727416992188	230.8070526123047	-1130.513916015625	-263.1461486816407	227.4671325683594	-1091.071411132813	-314.5373840332032	171.4398651123047	-1056.1640625	-408.0497131347657	76.63941192626955	-1112.72509765625	-388.2321777343751	89.40592193603517	-1027.182983398438	-471.7628173828126	43.07501983642579	-1068.679565429688	-262.0266418457032	54.53286743164064	-1043.499877929688	-255.2075195312501	54.70999145507814	-1082.446655273438	-271.4149780273438	42.95700836181641	-1133.77880859375	-421.290008544922	516.3958129882814	-702.2271118164064	-353.3442687988282	521.6335449218751	-689.9345092773439	-335.0314941406251	548.0756835937501	-704.9027709960939	-303.5789794921876	452.4365844726564	-685.6950683593751	-257.8870849609376	420.9014587402345	-682.7883300781251	-230.6443939208985	418.0553283691407	-785.3101806640627	-232.3848419189454	287.7214050292969	-703.4307250976564	-330.2526550292969	239.7852935791016	-682.4165649414064	-289.1017761230469	222.1139831542969	-698.7340087890626	-295.9293518066407	179.1617889404297	-737.3147583007814	-406.532684326172	77.16914367675783	-712.6153564453126	-383.5998535156251	89.3270721435547	-795.6970214843752	-466.6661682128907	50.3008270263672	-761.4996948242189	-258.4375915527344	52.58770751953126	-773.3159790039065	-256.5434265136719	56.39424133300783	-727.8041992187501	-284.1114501953126	35.19671249389649	-675.2345581054689	
617	3.08	97.11175537109378	993.5261840820315	-883.4448242187502	-58.05095291137697	971.816589355469	-979.336608886719	-43.99563598632813	971.805114746094	-830.778259277344	-125.7126998901367	934.0605468750002	-907.2388305664065	-411.587860107422	810.0056762695315	-921.3992919921877	-95.71917724609376	778.8560180664065	-906.0133056640627	-90.03624725341798	836.7249145507815	-1073.055053710938	-208.9143981933594	771.0635375976565	-1219.662231445313	-244.2695770263672	740.6893920898439	-1208.129150390625	-256.3161315917969	755.0529174804689	-1265.975219726563	-305.0708312988282	746.8557739257814	-1299.184204101563	-349.5387878417969	821.370788574219	-1280.057373046875	-483.2013244628907	710.9394531250001	-1135.218505859375	nan	nan	nan	-478.7233886718751	649.8511962890626	-1159.321166992188	-117.0900344848633	831.9815063476565	-745.3618774414064	-244.8882141113282	799.4682617187502	-600.7020874023439	-268.5491333007813	754.8489990234376	-603.7808837890626	-299.3545837402344	781.010437011719	-558.7249755859376	-362.0974731445313	747.3861694335939	-538.0078735351564	-408.503387451172	813.5120849609377	-577.0273437500001	-501.0237426757814	690.0396728515626	-730.3389282226564	-454.0658569335939	670.2373657226564	-752.8740234375001	-491.9803466796876	628.9620971679689	-701.3349609375001	-441.895233154297	675.7542724609376	-1083.238159179688	nan	nan	nan	-518.4580078125001	746.6011352539064	-923.2618408203127	-546.3972778320314	734.5399169921876	-953.1948242187502	-548.0764160156251	728.6917114257814	-895.8043212890627	-481.6068115234376	584.3739013671876	-1139.71923828125	-399.7969665527345	566.4765014648439	-1140.466796875	-373.2120361328126	594.7912597656251	-1110.027221679688	-373.5021667480469	511.8633728027345	-1152.256958007813	-249.5096435546876	414.4335327148439	-1148.414428710938	-234.1067810058594	412.128143310547	-1040.539428710938	-249.6924438476563	279.8116455078126	-1068.160400390625	-287.6478881835938	230.8111114501954	-1130.886962890625	-263.2593994140626	227.5325012207032	-1091.7509765625	-314.5650024414063	171.5002136230469	-1056.51953125	-408.1157226562501	76.67515563964845	-1112.810546875	-388.2923583984376	89.38742828369142	-1027.248046875	-471.8137207031251	43.05755233764649	-1068.621215820313	-262.0653991699219	54.57755661010744	-1043.605590820313	-255.0384521484376	54.62764358520509	-1082.443481445313	-271.4407653808594	42.93139648437501	-1133.8291015625	-421.763153076172	516.3406982421876	-701.8607788085939	-353.8853149414063	521.5363159179689	-689.5654296875001	-335.5328063964844	548.0756835937501	-704.4792480468751	-304.1095886230469	452.2710876464845	-685.2478637695314	-258.2277832031251	420.8312072753907	-682.3182373046876	-230.7868957519532	418.1014404296876	-784.7926025390627	-232.5464782714844	287.7813415527344	-702.9835205078126	-330.4675292968751	239.6768951416016	-682.1322631835939	-289.3097229003907	222.0912322998047	-698.3948364257814	-296.0408020019532	179.1589050292969	-736.9823608398439	-406.5904541015626	77.05110168457033	-712.5617675781251	-383.7123107910157	89.3586883544922	-795.6149902343752	-466.7426147460939	50.24428939819337	-761.5275268554689	-258.4962463378907	52.61246871948244	-773.2962646484377	-256.5745544433594	56.36978149414064	-727.7056884765626	-284.1434326171876	35.14702987670899	-675.1721801757814	
